<svg
  xmlns="http://www.w3.org/2000/svg"
  viewBox="0 0 440.2 35"
  className="Svg-sc-jx1qpn ibpvil"
>
  <g fill-rule="evenodd" clip-rule="evenodd">
    <path fill="#00ff99" d="M0 3h4v29H0z"></path>
    <path fill="#9933ff" d="M24 11h4v21h-4z"></path>
    <path fill="#00ccff" d="M0 31h28v4H0z"></path>
    <path fill="#fff35c" d="M0 0h16v4H0z"></path>
    <path fill="#ff6666" d="M24 8V4h-4V0h-4v12h12V8"></path>
    <path fill="#121212" opacity="0.4" d="M24 16v-4h4M16 0v4h-4"></path>
  </g>
  <g id="svgGroup" stroke-linecap="round" fill-rule="evenodd" font-size="9pt" stroke="#ffffff"
    stroke-width="0.25mm" fill="#00ff99" style="stroke:#ffffff;stroke-width:0.25mm;fill:#00ff99">
    <path
      d="M 77.129 3.094 L 77.473 12.289 A 30.11 30.11 0 0 0 68.406 10.914 A 21.7 21.7 0 0 0 67.942 10.919 Q 67.298 10.933 66.422 10.983 A 72.854 72.854 0 0 0 66.129 11 A 29.846 29.846 0 0 0 63.321 11.308 A 32.508 32.508 0 0 0 63.229 11.322 A 16.66 16.66 0 0 0 61.197 11.773 A 14.495 14.495 0 0 0 60.457 12.01 A 5.377 5.377 0 0 0 59.727 12.323 Q 59.007 12.703 58.652 13.234 A 2.511 2.511 0 0 0 58.475 13.551 Q 58.325 13.868 58.201 14.309 Q 58.008 14.996 57.9 15.748 Q 57.793 16.5 57.75 17.23 Q 57.707 17.961 57.707 18.434 A 15.883 15.883 0 0 0 57.728 19.226 Q 57.763 19.929 57.857 20.775 A 70.422 70.422 0 0 0 58.223 23.547 A 35.78 35.78 0 0 0 58.629 25.766 A 31.724 31.724 0 0 0 58.738 26.254 Q 59.039 27.543 59.383 28.359 L 66.988 28.359 L 66.602 20.066 A 74.807 74.807 0 0 0 72.01 20.262 A 75.447 75.447 0 0 0 72.553 20.26 A 827.239 827.239 0 0 1 78.504 20.238 Q 78.805 23.891 78.848 27.5 Q 78.891 31.109 78.891 34.762 A 705.57 705.57 0 0 1 68.256 34.504 A 127.593 127.593 0 0 1 57.621 33.73 Q 57.024 33.645 56.279 33.581 A 35.561 35.561 0 0 0 56.268 33.58 A 6.073 6.073 0 0 1 55.511 33.469 A 4.722 4.722 0 0 1 54.914 33.301 Q 54.017 32.961 53.399 32.565 A 4.659 4.659 0 0 1 52.959 32.248 A 4.355 4.355 0 0 1 52.121 31.347 A 3.933 3.933 0 0 1 51.863 30.916 A 5.824 5.824 0 0 1 51.408 29.705 A 6.91 6.91 0 0 1 51.305 29.24 Q 51.133 28.316 51.004 27.156 A 106.307 106.307 0 0 1 50.402 21.119 Q 50.188 18.09 50.188 15.039 A 36.476 36.476 0 0 1 50.191 14.587 Q 50.193 14.385 50.198 14.159 A 72.603 72.603 0 0 1 50.209 13.686 A 33.638 33.638 0 0 1 50.265 12.457 A 37.93 37.93 0 0 1 50.295 12.031 A 18.907 18.907 0 0 1 50.427 10.797 A 16.405 16.405 0 0 1 50.488 10.398 A 8.106 8.106 0 0 1 50.597 9.855 Q 50.66 9.59 50.736 9.365 A 3.974 3.974 0 0 1 50.832 9.109 Q 51.863 6.875 53.861 5.521 A 16.665 16.665 0 0 1 58.266 3.416 Q 60.672 2.664 63.229 2.428 A 58.69 58.69 0 0 1 65.683 2.25 A 44.927 44.927 0 0 1 67.934 2.191 A 47.642 47.642 0 0 1 77.129 3.094 Z"
      id="2" vector-effect="non-scaling-stroke" />
    <path
      d="M 101.32 12.934 L 96.551 12.762 A 214.015 214.015 0 0 0 96.486 15.727 A 201.66 201.66 0 0 0 96.465 18.691 A 287.228 287.228 0 0 0 96.486 22.236 A 309.458 309.458 0 0 0 96.551 25.781 L 100.934 25.867 A 36.842 36.842 0 0 0 100.848 28.402 L 100.848 30.98 A 35.864 35.864 0 0 0 100.912 33.129 A 14.595 14.595 0 0 0 101.191 35.234 L 85.766 35.492 A 197.031 197.031 0 0 0 85.723 31.346 Q 85.68 29.305 85.551 27.199 L 88.344 27.156 A 460.401 460.401 0 0 0 87.85 19.164 A 1735.671 1735.671 0 0 0 87.27 11.215 L 83.188 10.699 A 313.519 313.519 0 0 1 83.037 7.111 A 313.519 313.519 0 0 0 82.887 3.523 A 644.986 644.986 0 0 0 92.189 3.115 Q 96.809 2.879 101.535 2.535 A 53.271 53.271 0 0 0 101.356 6.889 A 52.47 52.47 0 0 0 101.363 7.756 A 104.72 104.72 0 0 1 101.378 9.487 A 103.462 103.462 0 0 1 101.32 12.934 Z"
      id="3" vector-effect="non-scaling-stroke" />
      </g>
  <g id="svgGroup" stroke-linecap="round" fill-rule="evenodd" font-size="9pt" stroke="#ffffff"
    stroke-width="0.25mm" fill="#9933ff" style="stroke:#ffffff;stroke-width:0.25mm;fill:#9933ff">
    <path
      d="M 117.734 24.535 L 117.391 33.473 A 23.423 23.423 0 0 1 115.882 33.522 A 22.281 22.281 0 0 1 114.77 33.494 A 52.488 52.488 0 0 0 112.148 33.43 Q 111.289 33.43 110.43 33.473 A 34.671 34.671 0 0 0 108.711 33.602 L 108.711 25.609 Q 108.711 21.656 108.539 17.617 Q 108.41 13.965 108.303 10.355 Q 108.195 6.746 108.109 3.094 A 277.151 277.151 0 0 0 117.025 2.342 A 89.559 89.559 0 0 1 125.984 1.891 Q 126.758 1.891 128.434 2.041 A 40.701 40.701 0 0 1 130.819 2.329 A 47.879 47.879 0 0 1 131.957 2.514 A 31.658 31.658 0 0 1 134.144 2.972 A 25.825 25.825 0 0 1 135.373 3.309 Q 136.941 3.781 137.457 4.383 A 1.399 1.399 0 0 1 137.642 4.658 Q 137.867 5.084 138.037 5.887 A 21.437 21.437 0 0 1 138.311 7.494 A 25.268 25.268 0 0 1 138.402 8.271 A 51.982 51.982 0 0 1 138.592 10.667 A 47.577 47.577 0 0 1 138.596 10.742 A 78.774 78.774 0 0 1 138.624 11.303 Q 138.658 12.046 138.66 12.461 A 10.312 10.312 0 0 1 138.66 12.504 Q 138.66 13.449 138.553 14.781 Q 138.445 16.113 138.209 17.488 Q 137.973 18.863 137.543 20.066 A 7.238 7.238 0 0 1 137.19 20.896 Q 136.872 21.527 136.469 21.957 A 0.667 0.667 0 0 1 136.293 22.092 Q 135.895 22.321 134.814 22.537 A 45.592 45.592 0 0 1 133.689 22.747 Q 133.187 22.834 132.63 22.921 A 86.306 86.306 0 0 1 131.463 23.096 Q 129.508 23.375 127.273 23.633 A 252.327 252.327 0 0 1 125.098 23.875 A 212.779 212.779 0 0 1 123.041 24.084 Q 121.667 24.217 120.548 24.319 A 299.264 299.264 0 0 1 119.582 24.406 Q 118.215 24.527 117.789 24.535 A 2.995 2.995 0 0 1 117.734 24.535 Z M 126.629 12.203 A 9.139 9.139 0 0 0 126.624 11.912 Q 126.614 11.61 126.586 11.215 Q 126.543 10.613 126.436 10.033 Q 126.328 9.453 126.113 8.959 A 2.068 2.068 0 0 0 125.942 8.64 Q 125.827 8.466 125.687 8.347 A 1.119 1.119 0 0 0 125.555 8.25 Q 125.373 8.141 125.009 8.063 A 4.619 4.619 0 0 0 124.867 8.035 Q 124.395 7.949 123.879 7.906 A 27.193 27.193 0 0 0 123.13 7.854 A 23.755 23.755 0 0 0 122.891 7.842 Q 122.436 7.821 122.22 7.82 A 4.588 4.588 0 0 0 122.203 7.82 Q 120.613 7.82 119.023 7.992 A 66.48 66.48 0 0 0 115.801 8.422 Q 115.93 9.711 115.951 10.957 A 144.566 144.566 0 0 1 115.973 13.449 Q 115.973 15.469 116.102 17.531 A 15.925 15.925 0 0 0 116.432 17.527 Q 117.004 17.515 118.035 17.467 Q 119.41 17.402 120.914 17.252 A 28.206 28.206 0 0 0 122.901 16.984 A 24.099 24.099 0 0 0 123.75 16.822 Q 125.082 16.543 125.555 16.07 Q 126.328 15.34 126.479 14.287 Q 126.629 13.234 126.629 12.203 Z"
      id="4" vector-effect="non-scaling-stroke" />
    <path
      d="M 170.93 33.945 L 162.379 34.16 A 366.33 366.33 0 0 1 162.25 28.617 A 366.33 366.33 0 0 0 162.121 23.074 L 154.043 23.461 A 8.443 8.443 0 0 0 154 24.273 A 7.768 7.768 0 0 0 154 24.299 L 154 25.094 Q 154 27.5 154.193 29.885 A 488.49 488.49 0 0 0 154.602 34.633 A 68.103 68.103 0 0 1 152.861 34.697 A 71.377 71.377 0 0 1 151.121 34.719 A 88.883 88.883 0 0 1 147.748 34.654 A 88.883 88.883 0 0 0 144.375 34.59 A 690.631 690.631 0 0 1 144.59 26.684 A 690.631 690.631 0 0 0 144.805 18.777 A 472.948 472.948 0 0 0 144.912 11.043 A 1400.367 1400.367 0 0 1 144.977 3.352 L 152.152 3.352 A 97.561 97.561 0 0 1 152.625 9.775 A 162.577 162.577 0 0 0 153.012 16.199 Q 155.074 16.156 157.094 16.156 A 202.229 202.229 0 0 0 161.219 16.113 L 161.648 2.191 Q 162.25 2.148 162.83 2.148 L 164.012 2.148 A 65.023 65.023 0 0 1 167.385 2.234 Q 169.039 2.32 170.715 2.621 A 478.183 478.183 0 0 1 170.894 15.682 A 472.178 472.178 0 0 1 170.887 18.283 A 944.979 944.979 0 0 0 170.872 23.49 A 956.756 956.756 0 0 0 170.93 33.945 Z"
      id="5" vector-effect="non-scaling-stroke" />
      </g>
  <g id="svgGroup" stroke-linecap="round" fill-rule="evenodd" font-size="9pt" stroke="#ffffff"
    stroke-width="0.25mm" fill="#00ccff" style="stroke:#ffffff;stroke-width:0.25mm;fill:#00ccff">
    <path
      d="M 206.39 25.47 A 11.303 11.303 0 0 0 206.594 23.375 A 44.005 44.005 0 0 0 206.207 17.553 Q 205.82 14.652 205.648 11.73 A 75.545 75.545 0 0 0 205.541 9.99 Q 205.477 9.109 205.391 8.25 Q 205.305 6.402 205.24 4.555 A 105.989 105.989 0 0 1 205.176 0.859 A 22.113 22.113 0 0 0 201.094 0.473 A 51.619 51.619 0 0 0 198.516 0.537 Q 197.227 0.602 195.938 0.645 A 105.349 105.349 0 0 1 196.346 6.961 A 334.199 334.199 0 0 0 196.625 13.32 A 21.232 21.232 0 0 1 194.391 13.9 A 11.597 11.597 0 0 1 192.07 14.137 A 8.205 8.205 0 0 1 190.115 13.9 Q 189.148 13.664 188.311 13.17 Q 187.473 12.676 186.871 11.924 A 3.898 3.898 0 0 1 186.474 11.321 A 4.404 4.404 0 0 1 186.055 10.141 Q 185.625 8.207 185.518 5.951 A 100.967 100.967 0 0 1 185.461 4.564 A 85.485 85.485 0 0 1 185.41 1.676 Q 183.348 1.547 181.264 1.375 Q 179.18 1.203 177.117 0.988 Q 177.203 3.824 177.311 6.574 A 153.026 153.026 0 0 0 177.633 12.16 A 28.378 28.378 0 0 1 177.66 12.477 Q 177.673 12.645 177.687 12.835 A 59.068 59.068 0 0 1 177.719 13.32 A 49.604 49.604 0 0 0 177.826 14.717 A 20.57 20.57 0 0 0 177.827 14.728 A 20.005 20.005 0 0 0 177.998 16.092 Q 178.065 16.508 178.141 16.849 A 8.196 8.196 0 0 0 178.234 17.23 Q 178.836 19.293 180.168 20.561 A 4.439 4.439 0 0 0 182.215 21.657 A 6.387 6.387 0 0 0 183.734 21.828 A 75.858 75.858 0 0 0 190.244 21.549 A 903.939 903.939 0 0 0 196.711 20.969 A 18.988 18.988 0 0 0 196.737 21.215 Q 196.824 21.982 196.99 22.924 Q 197.087 23.472 197.135 23.971 A 9.886 9.886 0 0 1 197.184 24.922 A 1.236 1.236 0 0 1 197.17 25.107 A 0.917 0.917 0 0 1 196.969 25.566 A 2.108 2.108 0 0 1 196.91 25.634 A 2.273 2.273 0 0 1 196.453 26.018 A 2.398 2.398 0 0 1 196.377 26.065 A 2.588 2.588 0 0 1 195.787 26.318 A 7.887 7.887 0 0 1 195.569 26.379 Q 195.466 26.406 195.373 26.427 A 3.786 3.786 0 0 1 195.164 26.469 A 7.762 7.762 0 0 1 194.991 26.504 Q 194.451 26.607 193.768 26.662 A 55.183 55.183 0 0 1 192.135 26.77 A 38.106 38.106 0 0 1 192.122 26.77 A 31.874 31.874 0 0 1 190.502 26.813 A 25.427 25.427 0 0 0 189.745 26.823 A 18.635 18.635 0 0 0 189.063 26.855 Q 186.098 27.07 183.154 27.221 A 778.309 778.309 0 0 1 177.246 27.5 Q 177.504 29.305 177.654 31.023 A 350.437 350.437 0 0 0 177.977 34.504 A 1278.627 1278.627 0 0 0 185.41 34.482 Q 189.105 34.461 192.801 34.289 Q 193.204 34.289 193.716 34.272 A 47.867 47.867 0 0 0 194.369 34.246 A 1773.989 1773.989 0 0 1 196.238 34.16 A 38.59 38.59 0 0 0 196.474 34.149 A 34.909 34.909 0 0 0 198.064 34.031 A 21.716 21.716 0 0 0 198.464 33.989 Q 199.096 33.915 199.59 33.816 A 6.671 6.671 0 0 0 202.533 32.377 Q 203.844 31.281 204.746 29.799 A 12.57 12.57 0 0 0 206.121 26.619 A 13.842 13.842 0 0 0 206.39 25.47 Z"
      id="6" vector-effect="non-scaling-stroke" />
      </g>
  <g id="svgGroup" stroke-linecap="round" fill-rule="evenodd" font-size="9pt" stroke="#ffffff"
    stroke-width="0.25mm" fill="#fff35c" style="stroke:#ffffff;stroke-width:0.25mm;fill:#fff35c">
    <path
      d="M 261.551 29.842 A 4.106 4.106 0 0 0 261.805 29.476 Q 262.539 28.289 262.539 26.512 Q 262.539 25.223 262.088 23.869 A 11.802 11.802 0 0 0 260.863 21.291 A 9.803 9.803 0 0 0 259.037 19.143 A 7.771 7.771 0 0 0 258.905 19.029 A 6.81 6.81 0 0 0 256.738 17.789 A 18.114 18.114 0 0 0 256.342 17.67 Q 255.734 17.495 255.042 17.34 A 32.037 32.037 0 0 0 253.516 17.037 A 54.132 54.132 0 0 0 253.051 16.958 A 60.043 60.043 0 0 0 249.67 16.5 A 225.017 225.017 0 0 0 245.76 16.113 A 4508.531 4508.531 0 0 1 244.613 16.01 Q 243.405 15.901 242.43 15.813 Q 242.258 15.813 241.506 15.727 A 127.6 127.6 0 0 0 240.732 15.641 A 149.792 149.792 0 0 0 239.916 15.555 A 80.651 80.651 0 0 1 239.116 15.469 A 60.204 60.204 0 0 1 238.391 15.383 A 23.829 23.829 0 0 1 238.32 15.374 Q 237.818 15.31 237.696 15.271 A 0.101 0.101 0 0 1 237.66 15.254 A 0.731 0.731 0 0 1 237.576 15.12 Q 237.482 14.931 237.467 14.652 Q 237.451 14.362 237.447 14.145 A 7.416 7.416 0 0 1 237.445 14.008 Q 237.445 13.492 237.488 12.998 Q 237.531 12.504 237.746 12.031 L 238.348 11.988 A 139.803 139.803 0 0 0 238.745 11.959 Q 239.204 11.925 239.766 11.881 A 52.099 52.099 0 0 1 240.178 11.85 A 58.264 58.264 0 0 1 241.463 11.773 A 53.26 53.26 0 0 1 241.856 11.756 Q 242.266 11.739 242.579 11.733 A 15.937 15.937 0 0 1 242.859 11.73 A 317.771 317.771 0 0 1 251.045 11.494 Q 255.105 11.43 259.188 11.344 A 1456.391 1456.391 0 0 1 258.93 8.83 A 24.832 24.832 0 0 1 258.801 6.316 A 140.857 140.857 0 0 1 258.822 3.846 A 146.019 146.019 0 0 1 258.887 1.375 A 92.557 92.557 0 0 0 252.699 0.387 A 50.531 50.531 0 0 0 246.426 0 A 39.173 39.173 0 0 0 245.057 0.024 A 44.937 44.937 0 0 0 240.775 0.387 Q 237.832 0.773 235.254 1.762 A 9.926 9.926 0 0 0 234.192 2.258 A 7.754 7.754 0 0 0 232.719 3.287 A 8.111 8.111 0 0 0 231.021 5.414 A 9.438 9.438 0 0 0 230.055 8.014 A 12.787 12.787 0 0 0 229.937 8.632 A 14.318 14.318 0 0 0 229.754 10.957 A 10.951 10.951 0 0 0 229.767 11.468 Q 229.785 11.862 229.83 12.316 A 24.285 24.285 0 0 0 229.947 13.277 Q 230.141 14.652 230.592 16.006 A 10.224 10.224 0 0 0 230.82 16.624 A 8.7 8.7 0 0 0 231.795 18.412 A 4.228 4.228 0 0 0 232.217 18.918 A 3.13 3.13 0 0 0 233.621 19.766 A 11.075 11.075 0 0 0 234.486 19.993 A 13.229 13.229 0 0 0 236.049 20.238 A 510.452 510.452 0 0 1 238.605 20.496 A 118.04 118.04 0 0 0 244.084 20.797 Q 246.813 20.883 249.563 21.098 A 0.351 0.351 0 0 1 249.574 21.098 Q 249.621 21.1 249.774 21.112 A 29.349 29.349 0 0 1 249.863 21.119 A 42.349 42.349 0 0 0 250.132 21.141 A 53.278 53.278 0 0 0 250.422 21.162 A 6.851 6.851 0 0 1 250.46 21.165 Q 250.594 21.175 250.715 21.19 A 4.212 4.212 0 0 1 250.959 21.227 A 2.641 2.641 0 0 1 251.041 21.243 Q 251.203 21.278 251.238 21.313 A 2.343 2.343 0 0 1 251.332 21.485 Q 251.521 21.869 251.625 22.408 A 9.108 9.108 0 0 1 251.68 22.722 Q 251.717 22.958 251.736 23.165 A 4.337 4.337 0 0 1 251.754 23.547 A 3.17 3.17 0 0 1 251.754 23.581 Q 251.751 23.826 251.711 24.127 A 1.33 1.33 0 0 1 251.699 24.203 Q 251.677 24.313 251.639 24.404 A 0.674 0.674 0 0 1 251.496 24.621 Q 251.281 24.793 250.873 24.879 A 6.768 6.768 0 0 1 250.558 24.937 A 8.217 8.217 0 0 1 249.992 25.008 A 11.135 11.135 0 0 1 249.744 25.028 A 9.593 9.593 0 0 1 249.09 25.051 L 248.445 25.051 A 75.462 75.462 0 0 1 245.889 25.008 A 4308.661 4308.661 0 0 1 243.375 24.922 Q 240.152 24.836 236.951 24.771 Q 233.75 24.707 230.527 24.621 A 72.408 72.408 0 0 1 230.817 31.115 A 74.353 74.353 0 0 1 230.785 33.301 A 173.356 173.356 0 0 0 236.135 33.559 A 164.593 164.593 0 0 0 241.484 33.645 A 119.262 119.262 0 0 0 241.562 33.645 Q 242.729 33.644 244.304 33.62 A 340.893 340.893 0 0 0 245.438 33.602 Q 247.801 33.559 250.25 33.408 Q 252.699 33.258 254.977 32.893 A 23.902 23.902 0 0 0 256.002 32.706 Q 256.82 32.538 257.521 32.327 A 11.706 11.706 0 0 0 258.758 31.883 A 8.397 8.397 0 0 0 260.112 31.158 A 6.081 6.081 0 0 0 261.551 29.842 Z"
      id="8" vector-effect="non-scaling-stroke" />
    <path
      d="M 290.727 2.191 L 291.199 7.906 Q 286.988 8.121 282.842 8.357 A 341.692 341.692 0 0 0 274.484 8.938 L 274.398 12.332 L 285.484 11.688 Q 285.699 13.148 285.807 14.566 Q 285.914 15.984 285.914 17.445 A 36.951 36.951 0 0 1 285.898 18.531 A 40.992 40.992 0 0 1 285.893 18.691 A 37.927 37.927 0 0 0 285.871 19.786 A 34.15 34.15 0 0 0 285.871 19.938 L 275.559 21.785 L 276.203 27.113 Q 279.469 26.898 282.713 26.49 Q 285.957 26.082 289.266 25.781 A 3206.567 3206.567 0 0 1 289.867 30.1 Q 290.168 32.27 290.727 34.332 A 691.2 691.2 0 0 0 285.859 34.315 A 676.678 676.678 0 0 0 278.609 34.354 A 1131.035 1131.035 0 0 1 266.492 34.418 A 1133.879 1133.879 0 0 1 266.793 24.406 Q 266.965 19.422 266.965 14.352 L 266.965 13.535 A 196.578 196.578 0 0 0 266.879 7.713 A 9119.352 9119.352 0 0 1 266.707 1.848 A 356.827 356.827 0 0 0 271.224 1.876 A 353.44 353.44 0 0 0 273.475 1.869 A 1069.345 1069.345 0 0 1 280.285 1.848 A 126.436 126.436 0 0 1 285.506 1.955 A 666.433 666.433 0 0 1 290.727 2.191 Z"
      id="9" vector-effect="non-scaling-stroke" />
      </g>
  <g id="svgGroup" stroke-linecap="round" fill-rule="evenodd" font-size="9pt" stroke="#ffffff"
    stroke-width="0.25mm" fill="#ff6666" style="stroke:#ffffff;stroke-width:0.25mm;fill:#ff6666">
    <path
      d="M 323.125 33.945 L 316.594 34.934 Q 315.906 32.742 315.219 30.572 A 219.504 219.504 0 0 1 313.887 26.211 L 303.316 26.598 L 301.984 32.313 L 295.367 32.313 A 2118.132 2118.132 0 0 1 296.613 17.789 A 2271.629 2271.629 0 0 0 297.859 3.309 Q 300.953 2.793 304.025 2.449 A 55.797 55.797 0 0 1 310.234 2.105 Q 314.059 2.105 317.883 2.234 A 2257.022 2257.022 0 0 1 319.236 11.15 Q 319.902 15.598 320.633 20.066 A 207.504 207.504 0 0 0 321.771 27.027 Q 322.395 30.465 323.125 33.945 Z M 304.133 20.582 L 312.383 20.367 Q 312.348 20.05 312.226 19.284 A 95.762 95.762 0 0 0 312.168 18.928 Q 311.996 17.875 311.781 16.693 A 24.946 24.946 0 0 0 311.55 15.565 A 19.133 19.133 0 0 0 311.287 14.545 Q 311.008 13.578 310.75 13.406 Q 310.664 13.363 310.342 13.32 A 40.996 40.996 0 0 0 310.009 13.277 A 49.313 49.313 0 0 0 309.654 13.234 Q 309.289 13.191 308.945 13.191 L 308.473 13.191 L 307.893 13.191 A 13.99 13.99 0 0 0 307.37 13.202 A 16.545 16.545 0 0 0 307.119 13.213 A 4.521 4.521 0 0 0 306.531 13.281 A 3.989 3.989 0 0 0 306.346 13.32 A 2.336 2.336 0 0 0 306.178 13.366 Q 305.948 13.438 305.852 13.535 A 0.108 0.108 0 0 0 305.815 13.572 Q 305.745 13.675 305.652 14.034 A 7.156 7.156 0 0 0 305.637 14.094 Q 305.508 14.609 305.314 15.361 A 49.742 49.742 0 0 0 305.121 16.14 A 60.101 60.101 0 0 0 304.928 16.973 A 685.694 685.694 0 0 0 304.74 17.811 A 584.991 584.991 0 0 0 304.563 18.605 A 65.332 65.332 0 0 0 304.443 19.155 Q 304.396 19.372 304.357 19.567 A 34.018 34.018 0 0 0 304.283 19.938 A 19.468 19.468 0 0 1 304.245 20.13 Q 304.177 20.465 304.142 20.56 A 0.226 0.226 0 0 1 304.133 20.582 Z"
      id="10" vector-effect="non-scaling-stroke" />
    <path
      d="M 358.145 34.719 L 345.598 35.02 Q 345.254 31.539 344.566 28.617 A 43.285 43.285 0 0 0 343.493 24.86 A 53.473 53.473 0 0 0 342.633 22.473 A 89.566 89.566 0 0 0 339.818 22.688 A 93.827 93.827 0 0 1 337.047 22.902 L 337.262 32.656 A 93.183 93.183 0 0 1 332.363 32.785 A 66.835 66.835 0 0 1 329.936 32.742 Q 328.754 32.699 327.551 32.57 A 755.65 755.65 0 0 0 328.109 24.686 A 144.007 144.007 0 0 0 328.41 16.844 Q 328.539 9.883 328.797 2.922 A 737.581 737.581 0 0 0 336.854 2.449 A 125.775 125.775 0 0 1 344.91 2.191 A 55.937 55.937 0 0 1 345.984 2.202 A 70.539 70.539 0 0 1 347.145 2.234 A 20.172 20.172 0 0 1 349.572 2.471 A 17.743 17.743 0 0 1 351.936 3.008 Q 353.074 3.352 353.977 3.91 Q 356.168 5.285 357.35 7.584 Q 358.531 9.883 358.531 12.461 A 9.316 9.316 0 0 1 358.254 14.799 A 6.552 6.552 0 0 1 356.383 18.004 A 7.849 7.849 0 0 1 352.791 19.905 A 11.057 11.057 0 0 1 350.711 20.195 A 119.732 119.732 0 0 1 358.145 34.719 Z M 337.348 7.734 L 338.508 16.07 A 14.076 14.076 0 0 0 340.228 16.348 A 15.584 15.584 0 0 0 340.484 16.371 A 24.318 24.318 0 0 0 342.504 16.457 A 12.002 12.002 0 0 0 342.744 16.454 Q 343.018 16.449 343.401 16.432 A 53.552 53.552 0 0 0 343.771 16.414 Q 344.609 16.371 345.49 16.242 A 11.284 11.284 0 0 0 346.541 16.039 A 9.404 9.404 0 0 0 347.123 15.877 A 3.571 3.571 0 0 0 347.53 15.723 Q 347.964 15.526 348.176 15.254 A 0.619 0.619 0 0 0 348.241 15.14 Q 348.328 14.951 348.391 14.588 A 7.744 7.744 0 0 0 348.492 13.69 A 8.621 8.621 0 0 0 348.498 13.557 A 633.416 633.416 0 0 1 348.541 12.504 A 47.365 47.365 0 0 0 348.55 12.265 Q 348.563 11.935 348.563 11.773 A 14.367 14.367 0 0 0 348.561 11.585 Q 348.557 11.279 348.541 10.828 A 12.129 12.129 0 0 0 348.434 9.604 A 7.269 7.269 0 0 0 348.277 8.796 A 6.18 6.18 0 0 0 348.176 8.443 Q 348.004 7.906 347.703 7.648 A 0.818 0.818 0 0 0 347.539 7.549 Q 347.374 7.472 347.123 7.419 A 3.588 3.588 0 0 0 346.973 7.391 A 19.316 19.316 0 0 0 346.233 7.283 A 22.765 22.765 0 0 0 345.877 7.24 A 16.37 16.37 0 0 0 345.031 7.168 A 14.464 14.464 0 0 0 344.76 7.154 A 53.205 53.205 0 0 0 344.512 7.145 Q 344.205 7.134 344.044 7.133 A 5.104 5.104 0 0 0 344.008 7.133 Q 342.289 7.133 340.635 7.305 A 62.454 62.454 0 0 0 337.348 7.734 Z"
      id="11" vector-effect="non-scaling-stroke" />
      </g>
  <g id="svgGroup" stroke-linecap="round" fill-rule="evenodd" font-size="9pt" stroke="#ffffff"
    stroke-width="0.25mm" fill="#00ff99" style="stroke:#ffffff;stroke-width:0.25mm;fill:#00ff99">
    <path
      d="M 390.887 23.891 L 390.844 30.594 A 230.331 230.331 0 0 1 386.934 31.324 A 85.562 85.562 0 0 1 383.023 31.926 A 201.917 201.917 0 0 1 378.898 32.398 A 39.788 39.788 0 0 1 374.773 32.613 A 23.355 23.355 0 0 1 374.438 32.611 Q 374.056 32.605 373.525 32.588 A 101.592 101.592 0 0 1 373.012 32.57 A 35.525 35.525 0 0 1 371.223 32.458 A 39.812 39.812 0 0 1 370.605 32.398 A 36.489 36.489 0 0 1 368.881 32.18 A 31.394 31.394 0 0 1 368.242 32.076 A 9.881 9.881 0 0 1 367.661 31.959 Q 366.98 31.798 366.609 31.582 A 5.927 5.927 0 0 1 365.734 30.898 A 6.5 6.5 0 0 1 365.707 30.873 A 8.548 8.548 0 0 1 365.066 30.196 A 7.666 7.666 0 0 1 364.934 30.035 A 11.247 11.247 0 0 1 363.43 27.586 A 15.593 15.593 0 0 1 362.484 24.836 Q 362.141 23.418 361.99 21.957 Q 361.84 20.496 361.84 19.078 Q 361.84 17.359 362.033 15.512 A 28.607 28.607 0 0 1 362.656 11.859 A 21.983 21.983 0 0 1 363.795 8.379 A 15.518 15.518 0 0 1 365.535 5.285 A 19.032 19.032 0 0 1 365.696 5.081 Q 365.946 4.769 366.286 4.367 A 52.422 52.422 0 0 1 366.309 4.34 A 4.58 4.58 0 0 1 366.678 3.949 Q 366.876 3.765 367.074 3.633 A 2.376 2.376 0 0 1 367.254 3.523 A 12.215 12.215 0 0 1 368.939 2.754 A 14.776 14.776 0 0 1 369.854 2.449 A 22.093 22.093 0 0 1 372.84 1.783 Q 374.387 1.547 375.912 1.439 A 45.725 45.725 0 0 1 377.378 1.359 A 35.396 35.396 0 0 1 378.727 1.332 A 43.2 43.2 0 0 1 383.625 1.611 Q 386.074 1.891 388.395 2.578 A 62.392 62.392 0 0 0 388.266 4.92 Q 388.223 6.102 388.223 7.262 A 123.955 123.955 0 0 0 388.352 12.891 Q 386.418 12.16 384.313 11.838 Q 382.207 11.516 380.145 11.516 A 7.872 7.872 0 0 0 379.906 11.52 Q 379.634 11.528 379.26 11.553 A 33.353 33.353 0 0 0 378.898 11.58 Q 378.136 11.64 377.187 11.738 A 102.695 102.695 0 0 0 377.051 11.752 A 40.924 40.924 0 0 0 375.197 11.989 A 45.253 45.253 0 0 0 374.924 12.031 A 20.263 20.263 0 0 0 373.613 12.28 A 16.819 16.819 0 0 0 372.883 12.461 A 11.34 11.34 0 0 0 372.022 12.731 Q 371.594 12.885 371.229 13.063 A 3.876 3.876 0 0 0 370.873 13.256 Q 370.46 13.514 370.305 13.793 A 2.149 2.149 0 0 0 370.196 14.055 Q 370.1 14.337 370.03 14.734 A 7.087 7.087 0 0 0 370.025 14.76 A 16.574 16.574 0 0 0 369.888 15.731 A 18.913 18.913 0 0 0 369.854 16.07 Q 369.789 16.758 369.768 17.402 Q 369.751 17.896 369.747 18.238 A 17.421 17.421 0 0 0 369.746 18.434 Q 369.746 18.82 369.832 19.98 Q 369.918 21.141 370.047 22.451 A 34.781 34.781 0 0 0 370.192 23.703 A 26.252 26.252 0 0 0 370.369 24.836 A 10.375 10.375 0 0 0 370.442 25.207 Q 370.562 25.756 370.69 25.973 A 0.395 0.395 0 0 0 370.777 26.082 A 0.744 0.744 0 0 0 370.93 26.149 Q 371.092 26.202 371.337 26.223 A 3.58 3.58 0 0 0 371.486 26.232 Q 371.98 26.254 372.152 26.254 A 47.098 47.098 0 0 0 374.902 26.17 A 57.839 57.839 0 0 0 376.664 26.039 A 85.11 85.11 0 0 0 381.541 25.459 A 232.067 232.067 0 0 0 386.418 24.686 A 294.666 294.666 0 0 0 388.738 24.283 A 234.973 234.973 0 0 0 390.887 23.891 Z"
      id="12" vector-effect="non-scaling-stroke" />
    <path
      d="M 422.039 33.945 L 413.488 34.16 A 366.33 366.33 0 0 1 413.359 28.617 A 366.33 366.33 0 0 0 413.23 23.074 L 405.152 23.461 A 8.443 8.443 0 0 0 405.109 24.273 A 7.768 7.768 0 0 0 405.109 24.299 L 405.109 25.094 Q 405.109 27.5 405.303 29.885 A 488.49 488.49 0 0 0 405.711 34.633 A 68.103 68.103 0 0 1 403.971 34.697 A 71.377 71.377 0 0 1 402.23 34.719 A 88.883 88.883 0 0 1 398.857 34.654 A 88.883 88.883 0 0 0 395.484 34.59 A 690.631 690.631 0 0 1 395.699 26.684 A 690.631 690.631 0 0 0 395.914 18.777 A 472.948 472.948 0 0 0 396.021 11.043 A 1400.367 1400.367 0 0 1 396.086 3.352 L 403.262 3.352 A 97.561 97.561 0 0 1 403.734 9.775 A 162.577 162.577 0 0 0 404.121 16.199 Q 406.184 16.156 408.203 16.156 A 202.229 202.229 0 0 0 412.328 16.113 L 412.758 2.191 Q 413.359 2.148 413.939 2.148 L 415.121 2.148 A 65.023 65.023 0 0 1 418.494 2.234 Q 420.148 2.32 421.824 2.621 A 478.183 478.183 0 0 1 422.003 15.682 A 472.178 472.178 0 0 1 421.996 18.283 A 944.979 944.979 0 0 0 421.982 23.49 A 956.756 956.756 0 0 0 422.039 33.945 Z"
      id="13" vector-effect="non-scaling-stroke" />
      </g>
  <g id="svgGroup" stroke-linecap="round" fill-rule="evenodd" font-size="9pt" stroke="#ffffff"
    stroke-width="0.25mm" fill="#9933ff" style="stroke:#ffffff;stroke-width:0.25mm;fill:#9933ff">
    <path
      d="M 428.184 1.848 L 438.195 1.031 Q 438.152 2.148 438.088 3.48 Q 438.023 4.813 437.938 6.188 A 52.025 52.025 0 0 1 437.701 8.873 A 35.605 35.605 0 0 1 437.5 10.361 A 28.491 28.491 0 0 1 437.336 11.301 A 549.107 549.107 0 0 1 436.025 17.66 A 549.107 549.107 0 0 0 434.715 24.02 L 429.988 24.449 L 428.914 13.621 Q 428.613 10.699 428.484 7.756 Q 428.355 4.813 428.184 1.848 Z M 437.189 31.676 A 2.494 2.494 0 0 0 437.422 30.637 A 2.563 2.563 0 0 0 437.419 30.511 A 2.128 2.128 0 0 0 437.4 30.314 Q 437.379 30.164 437.293 29.992 A 4.194 4.194 0 0 0 437.184 29.754 A 3.333 3.333 0 0 0 435.854 28.316 A 4.062 4.062 0 0 0 435.128 27.987 A 4.455 4.455 0 0 0 433.684 27.758 A 5.083 5.083 0 0 0 432.926 27.817 A 6.632 6.632 0 0 0 432.115 27.994 Q 431.277 28.23 430.568 28.682 Q 429.859 29.133 429.365 29.799 A 2.429 2.429 0 0 0 428.871 31.281 A 3.112 3.112 0 0 0 428.88 31.525 A 2.529 2.529 0 0 0 429.236 32.656 A 3.346 3.346 0 0 0 430.182 33.666 Q 430.762 34.074 431.471 34.311 A 4.962 4.962 0 0 0 431.993 34.455 A 3.937 3.937 0 0 0 432.824 34.547 A 3.01 3.01 0 0 0 432.948 34.544 Q 433.284 34.531 433.65 34.442 A 5.132 5.132 0 0 0 434.328 34.225 A 5.678 5.678 0 0 0 435.832 33.344 A 5.791 5.791 0 0 0 435.837 33.339 A 5.285 5.285 0 0 0 436.971 32.076 A 3.237 3.237 0 0 0 437.189 31.676 Z"
      id="14" vector-effect="non-scaling-stroke" />
  </g>
</svg>